<?xml version="1.0" encoding="UTF-8" standalone="no"?>
<!-- Created with Inkscape (http://www.inkscape.org/) -->

<svg
   xmlns:dc="http://purl.org/dc/elements/1.1/"
   xmlns:cc="http://creativecommons.org/ns#"
   xmlns:rdf="http://www.w3.org/1999/02/22-rdf-syntax-ns#"
   xmlns:svg="http://www.w3.org/2000/svg"
   xmlns="http://www.w3.org/2000/svg"
   xmlns:sodipodi="http://sodipodi.sourceforge.net/DTD/sodipodi-0.dtd"
   xmlns:inkscape="http://www.inkscape.org/namespaces/inkscape"
   width="744.09448819"
   height="1052.3622047"
   id="svg2"
   version="1.1"
   inkscape:version="0.48.2 r9819"
   sodipodi:docname="blops.svg">
  <defs
     id="defs4">
    <linearGradient
       id="linearGradient3765">
      <stop
         style="stop-color:#ffffff;stop-opacity:0.49152541;"
         offset="0"
         id="stop3767" />
      <stop
         style="stop-color:#ffffff;stop-opacity:0;"
         offset="1"
         id="stop3769" />
    </linearGradient>
  </defs>
  <sodipodi:namedview
     id="base"
     pagecolor="#ffffff"
     bordercolor="#666666"
     borderopacity="1.0"
     inkscape:pageopacity="0.0"
     inkscape:pageshadow="2"
     inkscape:zoom="1.4"
     inkscape:cx="248.82527"
     inkscape:cy="757.33067"
     inkscape:document-units="px"
     inkscape:current-layer="layer1"
     showgrid="false"
     inkscape:window-width="1499"
     inkscape:window-height="956"
     inkscape:window-x="58"
     inkscape:window-y="22"
     inkscape:window-maximized="0" />
  <metadata
     id="metadata7">
    <rdf:RDF>
      <cc:Work
         rdf:about="">
        <dc:format>image/svg+xml</dc:format>
        <dc:type
           rdf:resource="http://purl.org/dc/dcmitype/StillImage" />
        <dc:title></dc:title>
      </cc:Work>
    </rdf:RDF>
  </metadata>
  <g
     inkscape:label="Layer 1"
     inkscape:groupmode="layer"
     id="layer1">
    <g
       id="g3779"
       transform="matrix(0.21747573,0,0,0.21747573,7.094862,89.063553)">
      <path
         transform="translate(-5.555839,40.911178)"
         d="m 345.71428,489.50504 c 0,37.87095 -30.70047,68.57142 -68.57143,68.57142 -37.87095,0 -68.57142,-30.70047 -68.57142,-68.57142 0,-37.87096 30.70047,-68.57143 68.57142,-68.57143 37.87096,0 68.57143,30.70047 68.57143,68.57143 z"
         sodipodi:ry="68.571426"
         sodipodi:rx="68.571426"
         sodipodi:cy="489.50504"
         sodipodi:cx="277.14285"
         id="path2985"
         style="fill:#fdca01;fill-opacity:1;stroke:#000000;stroke-width:10;stroke-miterlimit:4;stroke-opacity:1;stroke-dasharray:none"
         sodipodi:type="arc" />
      <path
         inkscape:connector-curvature="0"
         id="path3773"
         d="m 200.29895,510.99143 c -0.76605,4.20892 -1.21397,8.53001 -1.21397,12.95999 0,39.76156 32.25656,72.01813 72.01813,72.01813 19.52217,0 37.19806,-7.79147 50.16661,-20.40788 -10.27305,4.09368 -21.47096,6.33235 -33.2038,6.33235 -43.10884,0 -79.10514,-30.37909 -87.76697,-70.90259 z"
         style="fill:#000000;fill-opacity:0.10037178;stroke:none" />
    </g>
    <g
       transform="matrix(0.21747573,0,0,0.21747573,70.666294,96.206414)"
       id="g3783">
      <path
         sodipodi:type="arc"
         style="fill:#f44800;fill-opacity:1;stroke:#000000;stroke-width:10;stroke-miterlimit:4;stroke-opacity:1;stroke-dasharray:none"
         id="path3785"
         sodipodi:cx="277.14285"
         sodipodi:cy="489.50504"
         sodipodi:rx="68.571426"
         sodipodi:ry="68.571426"
         d="m 345.71428,489.50504 c 0,37.87095 -30.70047,68.57142 -68.57143,68.57142 -37.87095,0 -68.57142,-30.70047 -68.57142,-68.57142 0,-37.87096 30.70047,-68.57143 68.57142,-68.57143 37.87096,0 68.57143,30.70047 68.57143,68.57143 z"
         transform="translate(-5.555839,40.911178)" />
      <path
         style="fill:#000000;fill-opacity:0.10037178;stroke:none"
         d="m 200.29895,510.99143 c -0.76605,4.20892 -1.21397,8.53001 -1.21397,12.95999 0,39.76156 32.25656,72.01813 72.01813,72.01813 19.52217,0 37.19806,-7.79147 50.16661,-20.40788 -10.27305,4.09368 -21.47096,6.33235 -33.2038,6.33235 -43.10884,0 -79.10514,-30.37909 -87.76697,-70.90259 z"
         id="path3787"
         inkscape:connector-curvature="0" />
    </g>
    <g
       transform="matrix(0.21747573,0,0,0.21747573,119.95201,103.34927)"
       id="g3789">
      <path
         sodipodi:type="arc"
         style="fill:#980101;fill-opacity:1;stroke:#000000;stroke-width:10;stroke-miterlimit:4;stroke-opacity:1;stroke-dasharray:none"
         id="path3791"
         sodipodi:cx="277.14285"
         sodipodi:cy="489.50504"
         sodipodi:rx="68.571426"
         sodipodi:ry="68.571426"
         d="m 345.71428,489.50504 c 0,37.87095 -30.70047,68.57142 -68.57143,68.57142 -37.87095,0 -68.57142,-30.70047 -68.57142,-68.57142 0,-37.87096 30.70047,-68.57143 68.57142,-68.57143 37.87096,0 68.57143,30.70047 68.57143,68.57143 z"
         transform="translate(-5.555839,40.911178)" />
      <path
         style="fill:#000000;fill-opacity:0.10037178;stroke:none"
         d="m 200.29895,510.99143 c -0.76605,4.20892 -1.21397,8.53001 -1.21397,12.95999 0,39.76156 32.25656,72.01813 72.01813,72.01813 19.52217,0 37.19806,-7.79147 50.16661,-20.40788 -10.27305,4.09368 -21.47096,6.33235 -33.2038,6.33235 -43.10884,0 -79.10514,-30.37909 -87.76697,-70.90259 z"
         id="path3793"
         inkscape:connector-curvature="0" />
    </g>
    <g
       id="g3795"
       transform="matrix(0.21747573,0,0,0.21747573,9.2377178,158.34927)">
      <path
         transform="translate(-5.555839,40.911178)"
         d="m 345.71428,489.50504 c 0,37.87095 -30.70047,68.57142 -68.57143,68.57142 -37.87095,0 -68.57142,-30.70047 -68.57142,-68.57142 0,-37.87096 30.70047,-68.57143 68.57142,-68.57143 37.87096,0 68.57143,30.70047 68.57143,68.57143 z"
         sodipodi:ry="68.571426"
         sodipodi:rx="68.571426"
         sodipodi:cy="489.50504"
         sodipodi:cx="277.14285"
         id="path3797"
         style="fill:#6699cc;fill-opacity:1;stroke:#000000;stroke-width:10;stroke-miterlimit:4;stroke-opacity:1;stroke-dasharray:none"
         sodipodi:type="arc" />
      <path
         inkscape:connector-curvature="0"
         id="path3799"
         d="m 200.29895,510.99143 c -0.76605,4.20892 -1.21397,8.53001 -1.21397,12.95999 0,39.76156 32.25656,72.01813 72.01813,72.01813 19.52217,0 37.19806,-7.79147 50.16661,-20.40788 -10.27305,4.09368 -21.47096,6.33235 -33.2038,6.33235 -43.10884,0 -79.10514,-30.37909 -87.76697,-70.90259 z"
         style="fill:#000000;fill-opacity:0.10037178;stroke:none" />
    </g>
    <g
       transform="matrix(0.21747573,0,0,0.21747573,64.952009,162.63499)"
       id="g3801">
      <path
         sodipodi:type="arc"
         style="fill:#ccff99;fill-opacity:1;stroke:#000000;stroke-width:10;stroke-miterlimit:4;stroke-opacity:1;stroke-dasharray:none"
         id="path3803"
         sodipodi:cx="277.14285"
         sodipodi:cy="489.50504"
         sodipodi:rx="68.571426"
         sodipodi:ry="68.571426"
         d="m 345.71428,489.50504 c 0,37.87095 -30.70047,68.57142 -68.57143,68.57142 -37.87095,0 -68.57142,-30.70047 -68.57142,-68.57142 0,-37.87096 30.70047,-68.57143 68.57142,-68.57143 37.87096,0 68.57143,30.70047 68.57143,68.57143 z"
         transform="translate(-5.555839,40.911178)" />
      <path
         style="fill:#000000;fill-opacity:0.10037178;stroke:none"
         d="m 200.29895,510.99143 c -0.76605,4.20892 -1.21397,8.53001 -1.21397,12.95999 0,39.76156 32.25656,72.01813 72.01813,72.01813 19.52217,0 37.19806,-7.79147 50.16661,-20.40788 -10.27305,4.09368 -21.47096,6.33235 -33.2038,6.33235 -43.10884,0 -79.10514,-30.37909 -87.76697,-70.90259 z"
         id="path3805"
         inkscape:connector-curvature="0" />
    </g>
    <g
       transform="matrix(0.21747573,0,0,0.21747573,172.80915,91.206407)"
       id="g3807">
      <path
         sodipodi:type="arc"
         style="fill:#eeeeee;fill-opacity:1;stroke:#000000;stroke-width:10;stroke-miterlimit:4;stroke-opacity:1;stroke-dasharray:none"
         id="path3809"
         sodipodi:cx="277.14285"
         sodipodi:cy="489.50504"
         sodipodi:rx="68.571426"
         sodipodi:ry="68.571426"
         d="m 345.71428,489.50504 c 0,37.87095 -30.70047,68.57142 -68.57143,68.57142 -37.87095,0 -68.57142,-30.70047 -68.57142,-68.57142 0,-37.87096 30.70047,-68.57143 68.57142,-68.57143 37.87096,0 68.57143,30.70047 68.57143,68.57143 z"
         transform="translate(-5.555839,40.911178)" />
      <path
         style="fill:#000000;fill-opacity:0.10037178;stroke:none"
         d="m 200.29895,510.99143 c -0.76605,4.20892 -1.21397,8.53001 -1.21397,12.95999 0,39.76156 32.25656,72.01813 72.01813,72.01813 19.52217,0 37.19806,-7.79147 50.16661,-20.40788 -10.27305,4.09368 -21.47096,6.33235 -33.2038,6.33235 -43.10884,0 -79.10514,-30.37909 -87.76697,-70.90259 z"
         id="path3811"
         inkscape:connector-curvature="0" />
    </g>
  </g>
</svg>
