<?xml version="1.0" encoding="UTF-8" standalone="no"?>
<!-- Created with Inkscape (http://www.inkscape.org/) -->

<svg
   xmlns:dc="http://purl.org/dc/elements/1.1/"
   xmlns:cc="http://creativecommons.org/ns#"
   xmlns:rdf="http://www.w3.org/1999/02/22-rdf-syntax-ns#"
   xmlns:svg="http://www.w3.org/2000/svg"
   xmlns="http://www.w3.org/2000/svg"
   xmlns:sodipodi="http://sodipodi.sourceforge.net/DTD/sodipodi-0.dtd"
   xmlns:inkscape="http://www.inkscape.org/namespaces/inkscape"
   width="744.09448819"
   height="1052.3622047"
   id="svg2"
   version="1.1"
   inkscape:version="0.48.2 r9819"
   sodipodi:docname="missile.svg">
  <defs
     id="defs4" />
  <sodipodi:namedview
     id="base"
     pagecolor="#ffffff"
     bordercolor="#666666"
     borderopacity="1.0"
     inkscape:pageopacity="0.0"
     inkscape:pageshadow="2"
     inkscape:zoom="0.35"
     inkscape:cx="493.57143"
     inkscape:cy="492.85714"
     inkscape:document-units="px"
     inkscape:current-layer="layer1"
     showgrid="false"
     inkscape:window-width="1146"
     inkscape:window-height="714"
     inkscape:window-x="58"
     inkscape:window-y="0"
     inkscape:window-maximized="0" />
  <metadata
     id="metadata7">
    <rdf:RDF>
      <cc:Work
         rdf:about="">
        <dc:format>image/svg+xml</dc:format>
        <dc:type
           rdf:resource="http://purl.org/dc/dcmitype/StillImage" />
        <dc:title></dc:title>
      </cc:Work>
    </rdf:RDF>
  </metadata>
  <g
     inkscape:label="Layer 1"
     inkscape:groupmode="layer"
     id="layer1">
    <g
       id="g3770"
       transform="matrix(0.13195876,0,0,0.13195876,73.187426,479.79751)"
       inkscape:export-filename="/Users/erikskoglund/Documents/ruby/airstrike/assets/missile.png"
       inkscape:export-xdpi="90"
       inkscape:export-ydpi="90">
      <path
         sodipodi:nodetypes="ccccccc"
         inkscape:connector-curvature="0"
         id="rect2985"
         d="m 37.186929,370.57962 -39.996805,60.19864 0,60.19864 0,60.19864 39.996805,60.19864 C 682.21403,800.9621 957.11345,490.9769 957.11345,490.9769 c 0,0 -319.5625,-325.3126 -919.926521,-120.39728 z"
         style="fill:#d40000;fill-opacity:1;stroke:#000000;stroke-width:10.07667637;stroke-miterlimit:4;stroke-opacity:1;stroke-dasharray:none" />
      <path
         id="path3760"
         d="m 260.71875,317.75 c -19.47906,2.90416 -39.36179,6.36152 -59.625,10.4375 -19.24208,105.9238 -16.28,213.1521 8.875,321.6875 19.89009,3.48547 39.34213,6.44407 58.375,8.96875 C 234.09281,535.12948 237.20609,423.22313 260.71875,317.75 z M 156.4375,338.03125 c -19.51083,4.66354 -39.36948,9.86819 -59.5625,15.6875 -13.349386,90.3749 -10.561113,181.70021 8.28125,273.96875 19.87419,4.89651 39.37966,9.34598 58.5,13.3125 -27.2353,-108.8256 -25.71321,-208.58412 -7.21875,-302.96875 z"
         style="fill:#ffffff;fill-opacity:1;stroke:none"
         inkscape:connector-curvature="0" />
      <path
         style="fill:#ffffff;fill-opacity:0.33085501;stroke:none"
         d="m 111.47264,384.86533 c 287.08009,-38.01475 656.50172,46.01446 791.3551,106.11157 0,0 -230.99108,-262.45546 -791.3551,-106.11157 z"
         id="path3768"
         inkscape:connector-curvature="0"
         sodipodi:nodetypes="ccc" />
    </g>
  </g>
</svg>
