<?xml version="1.0" encoding="UTF-8" standalone="no"?>
<!-- Created with Inkscape (http://www.inkscape.org/) -->

<svg
   xmlns:dc="http://purl.org/dc/elements/1.1/"
   xmlns:cc="http://creativecommons.org/ns#"
   xmlns:rdf="http://www.w3.org/1999/02/22-rdf-syntax-ns#"
   xmlns:svg="http://www.w3.org/2000/svg"
   xmlns="http://www.w3.org/2000/svg"
   xmlns:sodipodi="http://sodipodi.sourceforge.net/DTD/sodipodi-0.dtd"
   xmlns:inkscape="http://www.inkscape.org/namespaces/inkscape"
   width="744.09448819"
   height="1052.3622047"
   id="svg2"
   version="1.1"
   inkscape:version="0.48.2 r9819"
   sodipodi:docname="tank.svg">
  <defs
     id="defs4" />
  <sodipodi:namedview
     id="base"
     pagecolor="#ffffff"
     bordercolor="#666666"
     borderopacity="1.0"
     inkscape:pageopacity="0.0"
     inkscape:pageshadow="2"
     inkscape:zoom="0.7"
     inkscape:cx="215.06322"
     inkscape:cy="500.99474"
     inkscape:document-units="px"
     inkscape:current-layer="layer1"
     showgrid="false"
     inkscape:window-width="1158"
     inkscape:window-height="734"
     inkscape:window-x="58"
     inkscape:window-y="0"
     inkscape:window-maximized="0" />
  <metadata
     id="metadata7">
    <rdf:RDF>
      <cc:Work
         rdf:about="">
        <dc:format>image/svg+xml</dc:format>
        <dc:type
           rdf:resource="http://purl.org/dc/dcmitype/StillImage" />
        <dc:title></dc:title>
      </cc:Work>
    </rdf:RDF>
  </metadata>
  <g
     inkscape:label="Layer 1"
     inkscape:groupmode="layer"
     id="layer1">
    <g
       id="g3845">
      <g
         id="g3764"
         transform="translate(-7.842661,100.18275)">
        <path
           d="m 222.23355,561.42804 c 0,30.12616 -24.42207,54.54824 -54.54823,54.54824 -30.12616,0 -54.54824,-24.42208 -54.54824,-54.54824 0,-30.12616 24.42208,-54.54824 54.54824,-54.54824 30.12616,0 54.54823,24.42208 54.54823,54.54824 z"
           sodipodi:ry="54.548237"
           sodipodi:rx="54.548237"
           sodipodi:cy="561.42804"
           sodipodi:cx="167.68532"
           id="path3766"
           style="fill:#015a01;fill-opacity:1;stroke:#000000;stroke-width:3;stroke-miterlimit:4;stroke-opacity:1;stroke-dasharray:none"
           sodipodi:type="arc" />
        <path
           d="m 222.23355,561.42804 c 0,30.12616 -24.42207,54.54824 -54.54823,54.54824 -30.12616,0 -54.54824,-24.42208 -54.54824,-54.54824 0,-30.12616 24.42208,-54.54824 54.54824,-54.54824 30.12616,0 54.54823,24.42208 54.54823,54.54824 z"
           sodipodi:ry="54.548237"
           sodipodi:rx="54.548237"
           sodipodi:cy="561.42804"
           sodipodi:cx="167.68532"
           id="path3768"
           style="fill:#174100;fill-opacity:1;stroke:none"
           sodipodi:type="arc"
           transform="matrix(0.69856652,0,0,0.69856652,50.54597,169.23321)" />
        <path
           transform="matrix(0.51338133,0,0,0.51338133,81.598807,273.20137)"
           sodipodi:type="arc"
           style="fill:#339900;fill-opacity:1;stroke:none"
           id="path3770"
           sodipodi:cx="167.68532"
           sodipodi:cy="561.42804"
           sodipodi:rx="54.548237"
           sodipodi:ry="54.548237"
           d="m 222.23355,561.42804 c 0,30.12616 -24.42207,54.54824 -54.54823,54.54824 -30.12616,0 -54.54824,-24.42208 -54.54824,-54.54824 0,-30.12616 24.42208,-54.54824 54.54824,-54.54824 30.12616,0 54.54823,24.42208 54.54823,54.54824 z" />
      </g>
      <g
         transform="translate(104.15734,100.18275)"
         id="g3772">
        <path
           sodipodi:type="arc"
           style="fill:#015a01;fill-opacity:1;stroke:#000000;stroke-width:3;stroke-miterlimit:4;stroke-opacity:1;stroke-dasharray:none"
           id="path3774"
           sodipodi:cx="167.68532"
           sodipodi:cy="561.42804"
           sodipodi:rx="54.548237"
           sodipodi:ry="54.548237"
           d="m 222.23355,561.42804 c 0,30.12616 -24.42207,54.54824 -54.54823,54.54824 -30.12616,0 -54.54824,-24.42208 -54.54824,-54.54824 0,-30.12616 24.42208,-54.54824 54.54824,-54.54824 30.12616,0 54.54823,24.42208 54.54823,54.54824 z" />
        <path
           transform="matrix(0.69856652,0,0,0.69856652,50.54597,169.23321)"
           sodipodi:type="arc"
           style="fill:#174100;fill-opacity:1;stroke:none"
           id="path3776"
           sodipodi:cx="167.68532"
           sodipodi:cy="561.42804"
           sodipodi:rx="54.548237"
           sodipodi:ry="54.548237"
           d="m 222.23355,561.42804 c 0,30.12616 -24.42207,54.54824 -54.54823,54.54824 -30.12616,0 -54.54824,-24.42208 -54.54824,-54.54824 0,-30.12616 24.42208,-54.54824 54.54824,-54.54824 30.12616,0 54.54823,24.42208 54.54823,54.54824 z" />
        <path
           d="m 222.23355,561.42804 c 0,30.12616 -24.42207,54.54824 -54.54823,54.54824 -30.12616,0 -54.54824,-24.42208 -54.54824,-54.54824 0,-30.12616 24.42208,-54.54824 54.54824,-54.54824 30.12616,0 54.54823,24.42208 54.54823,54.54824 z"
           sodipodi:ry="54.548237"
           sodipodi:rx="54.548237"
           sodipodi:cy="561.42804"
           sodipodi:cx="167.68532"
           id="path3778"
           style="fill:#339900;fill-opacity:1;stroke:none"
           sodipodi:type="arc"
           transform="matrix(0.51338133,0,0,0.51338133,81.598807,273.20137)" />
      </g>
      <g
         id="g3780"
         transform="translate(216.15734,100.18275)">
        <path
           d="m 222.23355,561.42804 c 0,30.12616 -24.42207,54.54824 -54.54823,54.54824 -30.12616,0 -54.54824,-24.42208 -54.54824,-54.54824 0,-30.12616 24.42208,-54.54824 54.54824,-54.54824 30.12616,0 54.54823,24.42208 54.54823,54.54824 z"
           sodipodi:ry="54.548237"
           sodipodi:rx="54.548237"
           sodipodi:cy="561.42804"
           sodipodi:cx="167.68532"
           id="path3782"
           style="fill:#015a01;fill-opacity:1;stroke:#000000;stroke-width:3;stroke-miterlimit:4;stroke-opacity:1;stroke-dasharray:none"
           sodipodi:type="arc" />
        <path
           d="m 222.23355,561.42804 c 0,30.12616 -24.42207,54.54824 -54.54823,54.54824 -30.12616,0 -54.54824,-24.42208 -54.54824,-54.54824 0,-30.12616 24.42208,-54.54824 54.54824,-54.54824 30.12616,0 54.54823,24.42208 54.54823,54.54824 z"
           sodipodi:ry="54.548237"
           sodipodi:rx="54.548237"
           sodipodi:cy="561.42804"
           sodipodi:cx="167.68532"
           id="path3784"
           style="fill:#174100;fill-opacity:1;stroke:none"
           sodipodi:type="arc"
           transform="matrix(0.69856652,0,0,0.69856652,50.54597,169.23321)" />
        <path
           transform="matrix(0.51338133,0,0,0.51338133,81.598807,273.20137)"
           sodipodi:type="arc"
           style="fill:#339900;fill-opacity:1;stroke:none"
           id="path3786"
           sodipodi:cx="167.68532"
           sodipodi:cy="561.42804"
           sodipodi:rx="54.548237"
           sodipodi:ry="54.548237"
           d="m 222.23355,561.42804 c 0,30.12616 -24.42207,54.54824 -54.54823,54.54824 -30.12616,0 -54.54824,-24.42208 -54.54824,-54.54824 0,-30.12616 24.42208,-54.54824 54.54824,-54.54824 30.12616,0 54.54823,24.42208 54.54823,54.54824 z" />
      </g>
      <g
         transform="translate(328.15734,100.18275)"
         id="g3788">
        <path
           sodipodi:type="arc"
           style="fill:#015a01;fill-opacity:1;stroke:#000000;stroke-width:3;stroke-miterlimit:4;stroke-opacity:1;stroke-dasharray:none"
           id="path3790"
           sodipodi:cx="167.68532"
           sodipodi:cy="561.42804"
           sodipodi:rx="54.548237"
           sodipodi:ry="54.548237"
           d="m 222.23355,561.42804 c 0,30.12616 -24.42207,54.54824 -54.54823,54.54824 -30.12616,0 -54.54824,-24.42208 -54.54824,-54.54824 0,-30.12616 24.42208,-54.54824 54.54824,-54.54824 30.12616,0 54.54823,24.42208 54.54823,54.54824 z" />
        <path
           transform="matrix(0.69856652,0,0,0.69856652,50.54597,169.23321)"
           sodipodi:type="arc"
           style="fill:#174100;fill-opacity:1;stroke:none"
           id="path3792"
           sodipodi:cx="167.68532"
           sodipodi:cy="561.42804"
           sodipodi:rx="54.548237"
           sodipodi:ry="54.548237"
           d="m 222.23355,561.42804 c 0,30.12616 -24.42207,54.54824 -54.54823,54.54824 -30.12616,0 -54.54824,-24.42208 -54.54824,-54.54824 0,-30.12616 24.42208,-54.54824 54.54824,-54.54824 30.12616,0 54.54823,24.42208 54.54823,54.54824 z" />
        <path
           d="m 222.23355,561.42804 c 0,30.12616 -24.42207,54.54824 -54.54823,54.54824 -30.12616,0 -54.54824,-24.42208 -54.54824,-54.54824 0,-30.12616 24.42208,-54.54824 54.54824,-54.54824 30.12616,0 54.54823,24.42208 54.54823,54.54824 z"
           sodipodi:ry="54.548237"
           sodipodi:rx="54.548237"
           sodipodi:cy="561.42804"
           sodipodi:cx="167.68532"
           id="path3794"
           style="fill:#339900;fill-opacity:1;stroke:none"
           sodipodi:type="arc"
           transform="matrix(0.51338133,0,0,0.51338133,81.598807,273.20137)" />
      </g>
      <g
         transform="translate(-119.84266,100.18275)"
         id="g3796">
        <path
           sodipodi:type="arc"
           style="fill:#015a01;fill-opacity:1;stroke:#000000;stroke-width:3;stroke-miterlimit:4;stroke-opacity:1;stroke-dasharray:none"
           id="path3798"
           sodipodi:cx="167.68532"
           sodipodi:cy="561.42804"
           sodipodi:rx="54.548237"
           sodipodi:ry="54.548237"
           d="m 222.23355,561.42804 c 0,30.12616 -24.42207,54.54824 -54.54823,54.54824 -30.12616,0 -54.54824,-24.42208 -54.54824,-54.54824 0,-30.12616 24.42208,-54.54824 54.54824,-54.54824 30.12616,0 54.54823,24.42208 54.54823,54.54824 z" />
        <path
           transform="matrix(0.69856652,0,0,0.69856652,50.54597,169.23321)"
           sodipodi:type="arc"
           style="fill:#174100;fill-opacity:1;stroke:none"
           id="path3800"
           sodipodi:cx="167.68532"
           sodipodi:cy="561.42804"
           sodipodi:rx="54.548237"
           sodipodi:ry="54.548237"
           d="m 222.23355,561.42804 c 0,30.12616 -24.42207,54.54824 -54.54823,54.54824 -30.12616,0 -54.54824,-24.42208 -54.54824,-54.54824 0,-30.12616 24.42208,-54.54824 54.54824,-54.54824 30.12616,0 54.54823,24.42208 54.54823,54.54824 z" />
        <path
           d="m 222.23355,561.42804 c 0,30.12616 -24.42207,54.54824 -54.54823,54.54824 -30.12616,0 -54.54824,-24.42208 -54.54824,-54.54824 0,-30.12616 24.42208,-54.54824 54.54824,-54.54824 30.12616,0 54.54823,24.42208 54.54823,54.54824 z"
           sodipodi:ry="54.548237"
           sodipodi:rx="54.548237"
           sodipodi:cy="561.42804"
           sodipodi:cx="167.68532"
           id="path3802"
           style="fill:#339900;fill-opacity:1;stroke:none"
           sodipodi:type="arc"
           transform="matrix(0.51338133,0,0,0.51338133,81.598807,273.20137)" />
      </g>
      <path
         sodipodi:nodetypes="ccccccc"
         inkscape:connector-curvature="0"
         id="rect3804"
         d="m -40,606.65625 20,51.40625 583.71875,0 20,-91.40625 -59.43304,-40 -359.81508,1.92923 z"
         style="fill:#174100;fill-opacity:1;stroke:#000000;stroke-opacity:1;stroke-width:3;stroke-miterlimit:4;stroke-dasharray:none" />
      <rect
         y="515.2193"
         x="175.71429"
         height="120.00004"
         width="331.42859"
         id="rect3826"
         style="fill:#015a01;fill-opacity:1;stroke:#000000;stroke-width:3;stroke-miterlimit:4;stroke-opacity:1;stroke-dasharray:none" />
      <g
         id="g3839">
        <g
           id="g3835">
          <rect
             y="460.64789"
             x="-17.142857"
             height="24.285715"
             width="330"
             id="rect3831"
             style="fill:#174100;fill-opacity:1;stroke:#000000;stroke-width:3;stroke-miterlimit:4;stroke-opacity:1;stroke-dasharray:none" />
          <rect
             style="fill:#174100;fill-opacity:1;stroke:#000000;stroke-width:1.209975;stroke-miterlimit:4;stroke-opacity:1;stroke-dasharray:none"
             id="rect3833"
             width="35.524319"
             height="36.698586"
             x="-23.142857"
             y="454.44147" />
        </g>
        <path
           style="fill:#174100;fill-opacity:1;stroke:#000000;stroke-width:3;stroke-miterlimit:4;stroke-opacity:1;stroke-dasharray:none"
           d="m 195.71875,495.21875 0,40 145.71875,0 145.71875,0 0,-40 -72.85938,-40 -72.85937,0 -72.85938,0 z"
           id="rect3828"
           inkscape:connector-curvature="0"
           sodipodi:nodetypes="ccccccccc" />
      </g>
    </g>
  </g>
</svg>
